<?xml version="1.0" encoding="UTF-8"?>
<svg id="Capa_2" data-name="Capa 2" xmlns="http://www.w3.org/2000/svg" viewBox="0 0 142.36 33.1">
  <defs>
    <style>
      .cls-1 {
        fill: #fff;
      }
    </style>
  </defs>
  <g id="texto">
    <g>
      <path class="cls-1" d="M25.42,13.35C22.74,3.02,7.33,4.47,6.32,15.64c-.4,4.44,4.2,10.93,8.6,10.93h11.67c1.29,0,2.87,5.57-2.3,6.26-8.84,1.17-19.68-1.22-23.15-10.36C-4.11,8.62,9.76-4.89,23.38,1.78c5.88,2.88,11.68,11.73,7.88,17.79H13.36c-.57,0-2.39-2.47-1.98-3.46-.05-.81,1.6-2.76,1.98-2.76h12.06Z"/>
      <path class="cls-1" d="M100.08,18.79h-14v-5.44h19.06c4.69,8.99-4.83,19.1-14.04,19.47-14.4.58-22.55-17.81-12.39-28.01,1.28-1.29,7.04-4.68,8.55-4.68h13.22c1.82,1.51,1.74,4.83,0,6.22h-11.67c-2.42,0-7.08,3.81-7.82,6.18-4.26,13.67,14.93,19.76,19.1,6.27Z"/>
      <path class="cls-1" d="M123.21.31c23.38-3.98,26.22,31.59,3.67,32.5-20.06.81-22.54-29.28-3.67-32.5ZM124.78,6.51c-15.21,2.22-7.55,26.75,6.68,18.38,9.2-5.41,4.45-20-6.68-18.38Z"/>
      <path class="cls-1" d="M37.09,11.4c.18-.87,3.42-5.78,4.25-6.64,8.36-8.7,25.41-4.4,27.45,7.6.61,3.61.67,14.05.22,17.74-.1.83.03,1.8-.76,2.34l-4.61.23c-3.08-7.61,2.99-20.29-5.62-25.1-4.82-2.69-12.05-.7-14.13,4.41-2.69,6.63,4.05,22.5-6.81,20.8.87-6.21-1.18-15.61,0-21.39Z"/>
    </g>
  </g>
</svg>