<?xml version="1.0" encoding="UTF-8"?>
<svg id="Capa_2" data-name="Capa 2" xmlns="http://www.w3.org/2000/svg" viewBox="0 0 103.78 94.29">
  <defs>
    <style>
      .cls-1 {
        fill: #fff;
      }
    </style>
  </defs>
  <g id="texto">
    <g>
      <path class="cls-1" d="M67.59,44.43c1.27-.21.73-.23.75-.96.05-3-.72-10.22,1.4-12.22,2.74-2.58,6.57-1.34,7.87,2.01.42,6.13-.22,12.29-.24,18.4-.05,11.04,2.87,22.49-8.58,29.49-24.04,14.69-36.52-26.39-48.75-39.43-2.59-3.66,1.49-8.38,5.36-6.07,2.72,1.62,7.33,11.77,10.03,14.48l2,.29-14.36-22.48c-.56-4.94,4.33-6.95,7.55-3.04,4.7,5.72,8.23,13.75,13.16,19.46.67.23,1.39-.03,1.6-.73.4-1.36-14.1-20.65-15.53-23.72-1.91-4.72,3.55-8.27,7.01-4.05,5.11,6.23,9.41,14.94,14.36,21.54.47.63,1.7,2.81,2.64,2.31.81-.44.28-1.43-.02-2.03-3.33-6.67-10.36-13.66-13.75-20.64-1.13-3.62,2.98-6.64,6.12-4.52l21.38,31.9Z"/>
      <path class="cls-1" d="M22.96,91.14C10.23,83.76,1.74,70.54.18,55.81c-.22-2.12-.96-11.89,3.64-9.04,2.02,1.25,1.31,7.77,1.73,10.47,1.87,12.01,9.04,22.96,19.35,29.36,2.41,1.5,9.28,3.21,7.26,6.79-1.48,2.62-7.38-1.19-9.2-2.25Z"/>
      <path class="cls-1" d="M71.05.08c1.7-.65,8.62,2.75,10.34,3.81,8.93,5.48,17.7,16.38,20.68,26.47.68,2.29,2.81,14.35,1.01,15.58-5.3,3.6-4.34-6.74-4.87-9.42-2.34-12-10.33-23.4-21.12-29.17-1.52-.81-6.12-2.11-6.95-3.09-1.16-1.37-.77-3.54.91-4.18Z"/>
      <path class="cls-1" d="M67.38,10.2c2.15-1.12,7.5,1.17,9.62,2.23,7.69,3.85,13.97,11.57,16,20,.66,2.72,2.28,13.3-2.96,11.66-2.87-.9-1.75-6.14-2.23-8.65-1.31-6.78-5.29-13.08-11.1-16.85-2.51-1.63-8.83-3.01-9.95-4.07-1.47-1.4-1.09-3.43.61-4.32Z"/>
      <path class="cls-1" d="M12.48,47.1c.6-.17,1.53-.12,2.07.2,2.45,1.79.91,4.11.92,6.42.05,8.17,2.75,15.82,9.39,20.96,2.18,1.69,9.42,3.9,9.43,6.47.03,6.16-9.69.09-11.83-1.48-6.6-4.83-10.41-11.31-12.08-19.34-.6-2.86-1.4-12.23,2.09-13.23Z"/>
    </g>
  </g>
</svg>