<?xml version="1.0" encoding="UTF-8"?>
<svg id="Capa_2" data-name="Capa 2" xmlns="http://www.w3.org/2000/svg" viewBox="0 0 88.07 86.6">
  <defs>
    <style>
      .cls-1 {
        fill: #fff;
      }
    </style>
  </defs>
  <g id="texto">
    <g>
      <path class="cls-1" d="M43.62.19c1.02-.41,1.88-.03,2.8,0,38.88,1.21,56.2,49.7,27.07,75.62-20.34,18.1-52.7,12.72-66.08-10.79-1.55-.06-2.36-.06-3.79-.64-2.15-.86-4.35-2.18-3.37-4.79.9-2.42,3.48-8.38,4.81-10.41.89-1.35,1.86-1.39,3.41-1.22,1.29.15,9.7,4.23,11.25,5.13.95.55,1.33,1.17,1.38,2.3.06,1.54-1.81,5.8-3.67,6.06l.02.26c8.66,13.21,26.01,18.26,40.56,11.91,15.77-6.88,23.76-24.98,17.93-41.31-4.8-13.44-17.93-22.61-32.32-21.91V.19Z"/>
      <path class="cls-1" d="M42.28,38.14c2.16-.83,4.09-.72,6.16.3l10.33-8.94c2.12-1.09,4.81,1.37,3.71,3.52l-9.71,8.4-1.43.59c.42,2.54-.11,5.27-2.26,6.89-5.2,3.91-11.85-1.06-9.97-7.1l-1.75-.95c-3.5-4.59-8.93-8.77-12.31-13.31-2.4-3.22,1.15-6.42,4.11-4.11,3.78,4.42,8.04,8.43,11.87,12.79.47.53,1.1,1.25,1.26,1.93Z"/>
    </g>
  </g>
</svg>