<?xml version="1.0" encoding="UTF-8"?>
<svg id="Capa_2" data-name="Capa 2" xmlns="http://www.w3.org/2000/svg" viewBox="0 0 71.54 91.79">
  <defs>
    <style>
      .cls-1 {
        fill: #fff;
      }
    </style>
  </defs>
  <g id="texto">
    <g>
      <path class="cls-1" d="M25.68,13.92c-.16-.83-.54-4.44-.89-4.78-.5-.49-1.29-.25-1.51.43-.36,1.08-.42,3.09-.67,4.35-1.43,7.33-3.86,14.01-7.5,20.5C10.16,43.25,2.55,51.48.56,61.64c-2.99,15.28,6.26,28.27,21.64,30.14h3.89c11.19-.84,21.37-10.46,22.18-21.78,1.06-14.9-8.44-23.73-15.08-35.59-3.66-6.53-6.07-13.13-7.5-20.5ZM19.63,49.63c-1.28,5.01-2.41,10.02-2.77,15.2-.08,1.11.1,2.3,0,3.4-.63,7.52-10.29,7.04-10.04-.98.32-10.14,6.85-17.16,12.17-25.06.14-.21.34-.34.58-.4.95-.21,1.87.51,1.82,1.48-.08,1.49-1.34,4.69-1.76,6.35Z"/>
      <path class="cls-1" d="M62.5,15.22c-2.18-3.89-3.62-7.83-4.47-12.22-.1-.49-.32-2.65-.53-2.85-.3-.29-.77-.15-.9.25-.21.65-.25,1.84-.4,2.59-.85,4.37-2.3,8.35-4.47,12.22-2.95,5.26-7.49,10.17-8.67,16.22-1.78,9.11,3.73,16.85,12.9,17.97h2.32c6.67-.5,12.74-6.23,13.22-12.98.63-8.88-5.03-14.15-8.99-21.21ZM54.41,24.28c-.76,2.99-1.43,5.97-1.65,9.06-.05.66.06,1.37,0,2.03-.38,4.49-6.14,4.2-5.99-.58.19-6.04,4.09-10.23,7.26-14.94.08-.13.2-.2.35-.24.57-.13,1.12.3,1.08.88-.05.89-.8,2.79-1.05,3.78Z"/>
    </g>
  </g>
</svg>