<?xml version="1.0" encoding="UTF-8"?>
<svg id="Capa_2" data-name="Capa 2" xmlns="http://www.w3.org/2000/svg" viewBox="0 0 120.69 45.31">
  <defs>
    <style>
      .cls-1 {
        fill: #fff;
        stroke: #fff;
        stroke-miterlimit: 10;
        stroke-width: .25px;
      }
    </style>
  </defs>
  <g id="texto">
    <path class="cls-1" d="M99,.57c-4.41.91-7.4,4.99-10.05,5.26-2.11.2-5.89-.32-8.64-.36-16.7-.29-36.35-1.03-52.8,0-8.44.52-18.84,1.64-26.01,6.43-.19.12-.35.29-.45.49-6.65,12.2,24.68,32.01,34.44,32.74,11.56.87,14.15-11.55,15.76-17.15.34-1.18,1.97-1.28,2.46-.15,6.47,14.9,7.54,22.42,26.79,13.5,4-1.86,10.72-8.06,13.56-8.93,6.36-1.94,11.62,4.32,20.48-3.14,13.42-11.3,2.77-32.49-15.53-28.69ZM68.57,39.07c-7.38-.36-7.89-18.58-13.47-20.42-.15-.05-.31-.06-.47-.06l-4.5.17c-.44.02-.85.25-1.08.63-2.57,4.41-6.88,19.81-10.68,19.86-6.69.08-23.03-10.88-27.76-15.89-2.53-2.69-6.76-6.36-2.46-9.13,3.75-2.41,18.44-3.75,23.59-4.07,18.21-1.12,36.78-.18,54.91.77.63.03,1.14.51,1.23,1.14l1.83,14.69c.04.35-.04.7-.26.97-2.72,3.43-17.61,11.5-20.89,11.34ZM103.15,22.35c-.4.39-1.01.48-1.5.23-2.36-1.21-5.24-6.77-4.04-7.88l3.42,3.42c.39.39.98.49,1.48.26.04-.02.07-.03.11-.05,1.34-.63,20.29-19.8,1.47,3.12l-.93.9Z"/>
  </g>
</svg>